<?xml version="1.0" standalone="no"?>
<!DOCTYPE svg PUBLIC "-//W3C//DTD SVG 1.1//EN" "http://www.w3.org/Graphics/SVG/1.1/DTD/svg11.dtd">
<svg t="1554344274536" class="icon" style="" viewBox="0 0 2816 1024" version="1.1" xmlns="http://www.w3.org/2000/svg" p-id="3010" xmlns:xlink="http://www.w3.org/1999/xlink" width="16.5" height="6">
    <path d="M2269.090909 577.163636c0 76.8-4.654545 137.309091-11.636364 183.854546-9.309091 46.545455-16.290909 72.145455-20.945454 79.127273h144.290909l-34.909091-100.072728-11.636364-95.418182-4.654545-67.490909h-60.509091zM2210.909091 132.654545c11.636364-18.618182 48.872727-69.818182 128-46.545454 51.2 16.290909 79.127273 51.2 79.127273 104.727273 53.527273 23.272727 86.109091 55.854545 95.418181 100.072727 9.309091 44.218182 2.327273 74.472727-20.945454 93.090909 83.781818 23.272727 109.381818 65.163636 81.454545 125.672727-27.927273 60.509091-79.127273 67.490909-155.927272 18.618182-27.927273 30.254545-62.836364 46.545455-104.727273 46.545455-41.890909 0-81.454545-16.290909-116.363636-46.545455-55.854545 32.581818-97.745455 25.6-125.672728-18.618182-27.927273-44.218182-6.981818-86.109091 58.181818-125.672727-27.927273-41.890909-34.909091-81.454545-20.945454-116.363636s41.890909-53.527273 83.781818-53.527273c6.981818-41.890909 11.636364-67.490909 18.618182-81.454546z" fill="#CFE8FF" p-id="3011"></path>
    <path d="M2043.345455 228.072727c16.290909-44.218182 51.2-67.490909 100.072727-67.490909 6.981818 0 11.636364 4.654545 11.636363 11.636364s-4.654545 11.636364-11.636363 11.636363c-39.563636 0-65.163636 16.290909-76.8 51.2-13.963636 37.236364-6.981818 76.8 20.945454 118.69091l6.981819 9.30909-9.309091 6.981819c-65.163636 39.563636-83.781818 81.454545-58.181819 123.345454 25.6 44.218182 60.509091 48.872727 116.363637 16.290909l6.981818-4.654545 6.981818 6.981818c32.581818 32.581818 72.145455 48.872727 114.036364 48.872727 41.890909 0 76.8-16.290909 102.4-48.872727l6.981818-6.981818 9.309091 6.981818c74.472727 51.2 121.018182 44.218182 146.618182-16.290909 25.6-60.509091 2.327273-100.072727-79.127273-123.345455l-20.945455-6.981818 16.29091-13.963636c20.945455-16.290909 25.6-46.545455 18.618181-93.090909-6.981818-44.218182-39.563636-79.127273-93.090909-102.4l-6.981818-2.327273v-6.981818c0-53.527273-25.6-88.436364-74.472727-107.054546-48.872727-16.290909-88.436364-2.327273-121.018182 46.545455-4.654545 4.654545-11.636364 6.981818-16.290909 2.327273-4.654545-4.654545-6.981818-11.636364-2.327273-16.290909C2194.618182 13.963636 2245.818182-4.654545 2306.327273 16.290909c58.181818 18.618182 88.436364 60.509091 90.763636 121.018182 55.854545 25.6 90.763636 65.163636 100.072727 116.363636 6.981818 44.218182 4.654545 76.8-13.963636 100.072728 79.127273 27.927273 107.054545 79.127273 76.8 148.945454-32.581818 72.145455-90.763636 83.781818-172.218182 32.581818-30.254545 32.581818-67.490909 48.872727-114.036363 48.872728-46.545455 0-86.109091-16.290909-123.345455-48.872728-60.509091 34.909091-109.381818 23.272727-139.636364-30.254545-30.254545-53.527273-9.309091-104.727273 55.854546-148.945455-32.581818-41.890909-39.563636-86.109091-23.272727-128z" fill="#1D91FC" p-id="3012"></path>
    <path d="M2185.309091 844.8c-4.654545 4.654545-11.636364 6.981818-16.290909 2.327273-4.654545-4.654545-6.981818-11.636364-2.327273-16.290909 37.236364-55.854545 55.854545-102.4 55.854546-137.309091v-118.690909c0-6.981818 4.654545-11.636364 11.636363-11.636364s11.636364 4.654545 11.636364 11.636364v118.690909c0 41.890909-20.945455 90.763636-60.509091 151.272727zM2310.981818 577.163636c0-6.981818 4.654545-11.636364 11.636364-11.636363s11.636364 4.654545 11.636363 11.636363c0 62.836364 4.654545 111.709091 11.636364 151.272728 6.981818 37.236364 23.272727 72.145455 44.218182 104.727272 4.654545 4.654545 2.327273 11.636364-2.327273 16.290909-4.654545 4.654545-11.636364 2.327273-16.290909-2.327272-23.272727-34.909091-39.563636-72.145455-46.545454-111.709091-11.636364-44.218182-13.963636-95.418182-13.963637-158.254546z" fill="#1D91FC" p-id="3013"></path>
    <path d="M381.672727 861.090909c-6.981818 0-11.636364-4.654545-11.636363-11.636364s4.654545-11.636364 11.636363-11.636363H2792.727273c6.981818 0 11.636364 4.654545 11.636363 11.636363s-4.654545 11.636364-11.636363 11.636364H381.672727zM139.636364 861.090909c-6.981818 0-11.636364-4.654545-11.636364-11.636364s4.654545-11.636364 11.636364-11.636363h125.672727c6.981818 0 11.636364 4.654545 11.636364 11.636363s-4.654545 11.636364-11.636364 11.636364H139.636364zM23.272727 861.090909c-6.981818 0-11.636364-4.654545-11.636363-11.636364s4.654545-11.636364 11.636363-11.636363h34.909091c6.981818 0 11.636364 4.654545 11.636364 11.636363s-4.654545 11.636364-11.636364 11.636364H23.272727z" fill="#1D91FC" p-id="3014"></path>
    <path d="M869.003636 681.890909l146.618182-437.527273c9.309091-27.927273 37.236364-46.545455 65.163637-46.545454h612.072727c30.254545 0 58.181818 18.618182 67.490909 48.872727l139.636364 435.2 2.327272 216.436364h-1030.981818v-216.436364h-2.327273z" fill="#1D91FC" p-id="3015"></path>
    <path d="M892.276364 684.218182v190.836363h984.436363v-190.836363l-137.309091-432.872727c-6.981818-18.618182-23.272727-32.581818-44.218181-32.581819h-612.072728c-20.945455 0-37.236364 13.963636-44.218182 32.581819l-146.618181 432.872727z" fill="#F2F2F2" p-id="3016"></path>
    <path d="M1727.767273 219.229091l-626.432 1.466182L1727.767273 219.229091zM1101.335273 220.695273L1727.767273 219.229091l2.839272 9.774545-633.041454 2.932364z" fill="#C0E1FF" p-id="3017"></path>
    <path d="M1097.565091 231.936l633.018182-2.955636 2.862545 9.774545-639.650909 4.421818z" fill="#C1E1FF" p-id="3018"></path>
    <path d="M1093.794909 243.2l639.650909-4.468364 2.862546 9.751273-646.330182 5.981091z" fill="#C2E2FE" p-id="3019"></path>
    <path d="M1089.978182 254.464l646.330182-5.981091 2.885818 9.728-653.032727 7.517091z" fill="#C3E2FE" p-id="3020"></path>
    <path d="M1086.184727 265.728l653.009455-7.517091 2.885818 9.728-659.735273 9.076364z" fill="#C4E2FE" p-id="3021"></path>
    <path d="M1082.344727 277.015273l659.735273-9.076364 2.932364 9.704727-666.507637 10.682182z" fill="#C5E3FE" p-id="3022"></path>
    <path d="M1078.504727 288.325818l666.507637-10.705454 2.909091 9.728-673.28 12.288z" fill="#C6E3FD" p-id="3023"></path>
    <path d="M1074.664727 299.636364l673.28-12.288 2.932364 9.681454-680.098909 13.917091z" fill="#C7E3FD" p-id="3024"></path>
    <path d="M1070.010182 313.227636l681.448727-14.266181 2.955636 9.681454-688.290909 15.918546z" fill="#C8E4FD" p-id="3025"></path>
    <path d="M1066.123636 324.561455l688.290909-15.918546 2.97891 9.658182-695.156364 17.594182z" fill="#C9E4FD" p-id="3026"></path>
    <path d="M1062.213818 335.895273l695.156364-17.594182 3.025454 9.658182-702.091636 19.293091z" fill="#CAE4FC" p-id="3027"></path>
    <path d="M1058.304 347.229091l702.068364-19.269818 3.025454 9.634909-709.026909 21.015273z" fill="#CBE5FC" p-id="3028"></path>
    <path d="M1054.370909 358.632727l709.003636-21.038545 3.025455 9.634909-715.985455 22.760727z" fill="#CCE5FC" p-id="3029"></path>
    <path d="M1050.414545 369.989818L1766.4 347.229091l3.025455 9.634909-722.967273 24.506182z" fill="#CDE6FC" p-id="3030"></path>
    <path d="M1046.458182 381.370182l722.967273-24.506182 3.048727 9.611636-729.995637 26.298182z" fill="#CEE6FB" p-id="3031"></path>
    <path d="M1042.478545 392.773818l729.995637-26.298182 3.072 9.611637-737.047273 28.090182z" fill="#CFE6FB" p-id="3032"></path>
    <path d="M1038.475636 404.177455l737.047273-28.090182 3.095273 9.588363-744.145455 29.928728z" fill="#D0E7FB" p-id="3033"></path>
    <path d="M1033.658182 417.885091l745.588363-30.301091 3.095273 9.588364-752.709818 32.139636z" fill="#D1E7FA" p-id="3034"></path>
    <path d="M1029.632 429.312l752.709818-32.139636 3.095273 9.565091-759.854546 34.024727z" fill="#D2E7FA" p-id="3035"></path>
    <path d="M1025.605818 440.762182l759.854546-34.024727 3.095272 9.541818-767.022545 35.933091z" fill="#D3E8FA" p-id="3036"></path>
    <path d="M1021.533091 452.189091l767.022545-35.886546 3.141819 9.541819-774.237091 37.818181z" fill="#D4E8FA" p-id="3037"></path>
    <path d="M1017.483636 463.662545l774.213819-37.818181 3.16509 9.541818-781.498181 39.749818z" fill="#D5E8F9" p-id="3038"></path>
    <path d="M1013.387636 475.136l781.474909-39.749818 3.165091 9.541818-788.759272 41.704727z" fill="#D6E9F9" p-id="3039"></path>
    <path d="M1009.268364 486.632727l788.759272-41.728 3.188364 9.541818-796.043636 43.659637z" fill="#D7E9F9" p-id="3040"></path>
    <path d="M1005.149091 498.106182l796.066909-43.682909 3.188364 9.518545-803.374546 45.684364z" fill="#D8E9F9" p-id="3041"></path>
    <path d="M1001.029818 509.626182l803.374546-45.684364 3.234909 9.495273-810.752 47.709091z" fill="#DAEAF8" p-id="3042"></path>
    <path d="M996.887273 521.146182l810.752-47.709091 3.211636 9.472-818.129454 49.757091z" fill="#DBEAF8" p-id="3043"></path>
    <path d="M991.883636 534.970182l819.618909-50.152727 3.258182 9.472-827.066182 52.224z" fill="#DCEAF8" p-id="3044"></path>
    <path d="M987.694545 546.513455l827.066182-52.224 3.258182 9.448727L983.505455 558.08z" fill="#DDEBF8" p-id="3045"></path>
    <path d="M983.505455 558.056727l834.513454-54.318545 3.258182 9.472-841.984 56.413091z" fill="#DEEBF7" p-id="3046"></path>
    <path d="M979.316364 569.623273l841.984-56.413091 3.258181 9.425454-849.477818 58.554182z" fill="#DFEBF7" p-id="3047"></path>
    <path d="M975.080727 581.189818L1824.581818 522.635636l3.304727 9.425455-857.064727 60.695273z" fill="#E0ECF7" p-id="3048"></path>
    <path d="M970.821818 592.756364l857.064727-60.695273 3.328 9.425454-864.628363 62.88291z" fill="#E1ECF7" p-id="3049"></path>
    <path d="M966.586182 604.369455l864.628363-62.88291 3.328 9.425455-872.238545 65.047273z" fill="#E2ECF6" p-id="3050"></path>
    <path d="M962.304 615.959273l872.238545-65.047273 3.351273 9.378909-879.872 67.281455z" fill="#E3EDF6" p-id="3051"></path>
    <path d="M958.021818 627.572364l879.872-67.258182 3.374546 9.378909-887.552 69.515636z" fill="#E4EDF6" p-id="3052"></path>
    <path d="M953.716364 639.208727l887.552-69.515636 3.374545 9.378909-895.232 71.749818z" fill="#E5EDF5" p-id="3053"></path>
    <path d="M948.526545 653.149091l896.791273-72.215273 3.397818 9.378909-904.517818 74.472728z" fill="#E6EEF5" p-id="3054"></path>
    <path d="M944.197818 664.808727l904.517818-74.496 3.421091 9.355637-912.290909 76.8z" fill="#E7EEF5" p-id="3055"></path>
    <path d="M939.845818 676.468364l912.290909-76.8 3.421091 9.332363-920.064 79.127273z" fill="#E8EFF5" p-id="3056"></path>
    <path d="M935.493818 688.128l920.064-79.127273 3.444364 9.355637-927.883637 81.454545z" fill="#E9EFF4" p-id="3057"></path>
    <path d="M931.118545 699.810909l927.883637-81.454545 3.444363 9.309091-935.726545 83.828363z" fill="#EAEFF4" p-id="3058"></path>
    <path d="M926.72 711.493818l935.726545-83.828363 3.49091 9.30909-943.639273 86.225455z" fill="#EBF0F4" p-id="3059"></path>
    <path d="M922.298182 723.2l943.639273-86.225455 3.490909 9.309091-951.552 88.622546z" fill="#ECF0F4" p-id="3060"></path>
    <path d="M917.876364 734.906182l951.528727-88.622546 3.514182 9.309091-959.488 91.042909z" fill="#EDF0F3" p-id="3061"></path>
    <path d="M913.454545 746.635636l959.464728-91.042909 3.514182 9.262546-967.447273 93.509818z" fill="#EEF1F3" p-id="3062"></path>
    <path d="M908.101818 760.715636l969.029818-93.998545 3.537455 9.262545-977.035636 96.465455z" fill="#EFF1F3" p-id="3063"></path>
    <path d="M903.633455 772.445091l977.035636-96.465455 3.560727 9.262546-985.088 98.955636z" fill="#F0F1F3" p-id="3064"></path>
    <path d="M899.141818 784.197818l985.088-98.955636 3.560727 9.262545-993.163636 101.469091z" fill="#F1F2F2" p-id="3065"></path>
    <path d="M894.626909 795.973818l993.163636-101.469091 3.584 9.239273-1001.262545 104.005818z" fill="#F2F2F2" p-id="3066"></path>
    <path d="M890.112 807.749818l1001.262545-104.029091 33.629091 84.526546-1077.154909 128.349091z" fill="#F2F2F2" p-id="3067"></path>
    <path d="M1237.643636 349.696h460.381091l0.791273 2.373818H1236.759273zM1236.759273 352.069818h462.056727l3.956364 11.799273H1232.477091z" fill="#90CAFF" p-id="3068"></path>
    <path d="M1232.500364 363.869091h470.248727l3.956364 11.776h-478.487273z" fill="#91CAFF" p-id="3069"></path>
    <path d="M1228.241455 375.645091h478.440727l3.956363 11.799273H1223.959273z" fill="#92CBFF" p-id="3070"></path>
    <path d="M1223.959273 387.444364h486.679272l3.933091 11.799272H1219.700364z" fill="#93CBFF" p-id="3071"></path>
    <path d="M1220.561455 396.893091h493.218909l3.956363 11.776H1216.256z" fill="#94CCFF" p-id="3072"></path>
    <path d="M1216.279273 408.669091h501.434182l3.956363 11.799273h-509.672727z" fill="#95CCFF" p-id="3073"></path>
    <path d="M1212.020364 420.468364h509.649454l3.933091 11.799272H1207.761455z" fill="#96CDFF" p-id="3074"></path>
    <path d="M1207.761455 432.267636h517.818181l3.956364 11.799273H1203.479273z" fill="#97CDFF" p-id="3075"></path>
    <path d="M1203.479273 444.043636h526.056727l3.956364 11.822546H1199.197091z" fill="#98CEFF" p-id="3076"></path>
    <path d="M1199.220364 455.866182h534.248727l3.956364 11.799273h-542.487273z" fill="#99CEFF" p-id="3077"></path>
    <path d="M1194.961455 467.665455h542.464l3.93309 11.776H1190.679273z" fill="#9ACFFF" p-id="3078"></path>
    <path d="M1190.679273 479.441455h550.679272l3.933091 11.799272H1186.420364z" fill="#9BCFFF" p-id="3079"></path>
    <path d="M1187.258182 488.890182H1744.523636l3.956364 11.799273H1182.976z" fill="#9CD0FF" p-id="3080"></path>
    <path d="M1182.999273 500.689455h565.434182l3.956363 11.776h-573.672727z" fill="#9DD0FF" p-id="3081"></path>
    <path d="M1178.740364 512.465455h573.649454l3.933091 11.799272H1174.458182z" fill="#9ED1FF" p-id="3082"></path>
    <path d="M1174.458182 524.264727h581.864727l3.956364 11.799273H1170.176z" fill="#9FD1FF" p-id="3083"></path>
    <path d="M1170.199273 536.064h590.056727l3.956364 11.799273H1165.917091z" fill="#A0D2FF" p-id="3084"></path>
    <path d="M1165.940364 547.84h598.248727l3.956364 11.822545h-606.487273z" fill="#A1D2FF" p-id="3085"></path>
    <path d="M1161.658182 559.662545h606.487273l3.93309 11.776H1157.399273z" fill="#A2D3FF" p-id="3086"></path>
    <path d="M1157.399273 571.438545h614.679272l3.956364 11.799273H1153.117091z" fill="#A3D3FF" p-id="3087"></path>
    <path d="M1153.140364 583.237818h622.871272l3.956364 11.799273H1148.834909z" fill="#A4D4FF" p-id="3088"></path>
    <path d="M1149.719273 592.686545h629.457454l3.933091 11.799273h-637.672727z" fill="#A5D4FF" p-id="3089"></path>
    <path d="M1145.460364 604.485818h637.649454l3.933091 11.776H1141.178182z" fill="#A6D5FF" p-id="3090"></path>
    <path d="M1141.178182 616.261818h645.864727l3.956364 11.799273H1136.896z" fill="#A7D5FF" p-id="3091"></path>
    <path d="M1136.919273 628.061091h654.056727l3.956364 11.799273H1132.660364z" fill="#A9D6FF" p-id="3092"></path>
    <path d="M1132.660364 639.860364h662.272l3.933091 11.799272h-670.487273z" fill="#AAD6FF" p-id="3093"></path>
    <path d="M1128.378182 651.636364h670.487273l3.93309 11.822545H1124.119273z" fill="#ABD7FF" p-id="3094"></path>
    <path d="M1124.119273 663.458909h678.679272l3.956364 11.776H1119.837091z" fill="#ACD7FF" p-id="3095"></path>
    <path d="M1119.860364 675.234909h686.871272l3.956364 11.799273H1115.554909z" fill="#ADD8FF" p-id="3096"></path>
    <path d="M1116.439273 684.683636h693.457454l3.933091 11.799273h-701.672727z" fill="#AED8FF" p-id="3097"></path>
    <path d="M1112.157091 696.482909h701.672727l3.956364 11.799273H1107.874909z" fill="#AFD9FF" p-id="3098"></path>
    <path d="M1107.898182 708.282182h709.864727l3.956364 11.776H1103.616z" fill="#B0D9FF" p-id="3099"></path>
    <path d="M1103.639273 720.058182h718.056727l3.956364 11.799273H1099.357091z" fill="#B1DAFF" p-id="3100"></path>
    <path d="M1099.357091 731.857455h726.295273l3.933091 11.799272h-734.487273z" fill="#B2DAFF" p-id="3101"></path>
    <path d="M1095.098182 743.656727h734.487273l3.956363 11.799273H1090.816z" fill="#B3DBFF" p-id="3102"></path>
    <path d="M1090.839273 755.432727h742.679272l3.956364 11.822546H1086.533818z" fill="#B4DBFF" p-id="3103"></path>
    <path d="M1086.557091 767.255273h750.894545l3.956364 11.776H1082.298182z" fill="#B5DCFF" p-id="3104"></path>
    <path d="M1083.159273 776.680727h757.457454l3.933091 11.799273h-765.672727z" fill="#B6DCFF" p-id="3105"></path>
    <path d="M1078.877091 788.48h765.672727l3.956364 11.799273H1074.594909z" fill="#B7DDFF" p-id="3106"></path>
    <path d="M1074.618182 800.279273h773.864727l3.956364 11.776H1070.336z" fill="#B8DDFF" p-id="3107"></path>
    <path d="M1070.359273 812.055273h782.056727l3.956364 11.799272H1066.077091z" fill="#B9DEFF" p-id="3108"></path>
    <path d="M1066.077091 823.854545h790.295273l3.933091 11.799273h-798.487273z" fill="#BADEFF" p-id="3109"></path>
    <path d="M1061.818182 835.653818h798.487273l3.956363 11.799273H1057.536z" fill="#BBDFFF" p-id="3110"></path>
    <path d="M1057.559273 847.453091h806.679272l3.956364 11.799273H1053.253818z" fill="#BCDFFF" p-id="3111"></path>
    <path d="M1053.277091 859.229091h814.894545l3.956364 11.822545H1049.018182z" fill="#BDE0FF" p-id="3112"></path>
    <path d="M1049.879273 868.677818h821.457454l3.956364 11.799273h-829.672727z" fill="#BEE0FF" p-id="3113"></path>
    <path d="M1045.597091 880.477091h829.672727l3.956364 11.799273H1041.314909z" fill="#BFE1FF" p-id="3114"></path>
    <path d="M1041.338182 892.276364h837.864727l3.956364 11.799272H1037.032727z" fill="#C0E1FF" p-id="3115"></path>
    <path d="M1808.058182 927.418182h-821.527273v-256l86.109091-290.909091c9.309091-30.254545 37.236364-48.872727 67.490909-48.872727h505.018182c30.254545 0 55.854545 18.618182 65.163636 48.872727l97.745455 293.236364v253.672727z m-798.254546-23.272727h774.981819v-230.4l-95.418182-286.254546c-6.981818-18.618182-23.272727-32.581818-44.218182-32.581818h-505.018182c-20.945455 0-39.563636 13.963636-44.218182 32.581818l-86.109091 293.236364v223.418182z" fill="#1D91FC" p-id="3116"></path>
    <path d="M886.690909 667.927273h279.272727c37.236364 0 67.490909 30.254545 67.490909 67.490909 0 25.6 20.945455 44.218182 44.218182 44.218182h223.418182c25.6 0 44.218182-20.945455 44.218182-44.218182 0-37.236364 30.254545-67.490909 67.490909-67.490909l265.309091-2.327273c18.618182 0 34.909091 16.290909 34.909091 34.909091v228.072727c0 44.218182-34.909091 81.454545-81.454546 81.454546l-900.654545 11.636363c-44.218182 0-81.454545-34.909091-81.454546-81.454545V705.163636c2.327273-23.272727 18.618182-37.236364 37.236364-37.236363z" fill="#1D91FC" p-id="3117"></path>
    <path d="M886.690909 691.2c-6.981818 0-11.636364 4.654545-11.636364 11.636364v235.054545c0 32.581818 25.6 58.181818 58.181819 58.181818l900.654545-11.636363c32.581818 0 58.181818-25.6 58.181818-58.181819V698.181818c0-6.981818-4.654545-11.636364-11.636363-11.636363l-265.309091 2.327272c-25.6 0-44.218182 20.945455-44.218182 44.218182 0 37.236364-30.254545 67.490909-67.490909 67.490909H1280c-37.236364 0-67.490909-30.254545-67.490909-67.490909 0-25.6-20.945455-44.218182-44.218182-44.218182H886.690909v2.327273z" fill="#F2F2F2" p-id="3118"></path>
    <path d="M1245.090909 875.054545v-23.272727h309.527273v23.272727z" fill="#1D91FC" p-id="3119"></path>
    <path d="M1245.090909 963.490909v-23.272727h309.527273v23.272727z" fill="#1D91FC" p-id="3120"></path>
    <path d="M500.363636 837.818182c0 11.636364-13.963636 18.618182-20.945454 6.981818-60.509091-86.109091-111.709091-139.636364-146.618182-162.909091-16.290909-9.309091-37.236364-11.636364-79.127273-6.981818-2.327273 0-6.981818 0-11.636363 2.327273-39.563636 4.654545-55.854545 4.654545-72.145455 2.327272-25.6-4.654545-39.563636-20.945455-39.563636-48.872727 0-86.109091 137.309091-130.327273 244.363636-90.763636 67.490909 25.6 109.381818 125.672727 125.672727 297.890909z m-134.981818-276.945455c-93.090909-34.909091-214.109091 2.327273-214.109091 67.490909 0 16.290909 6.981818 23.272727 20.945455 25.6 13.963636 2.327273 27.927273 2.327273 65.163636-2.327272 4.654545 0 9.309091 0 11.636364-2.327273 46.545455-4.654545 74.472727-2.327273 95.418182 11.636364 34.909091 20.945455 76.8 67.490909 128 134.981818-18.618182-137.309091-55.854545-214.109091-107.054546-235.054546z" fill="#1D91FC" p-id="3121"></path>
    <path d="M256 616.727273c-6.981818 0-11.636364-4.654545-11.636364-11.636364s4.654545-11.636364 11.636364-11.636364c79.127273-2.327273 137.309091 25.6 169.890909 81.454546 30.254545 51.2 55.854545 104.727273 74.472727 160.581818 2.327273 6.981818-2.327273 11.636364-6.981818 13.963636-6.981818 2.327273-11.636364-2.327273-13.963636-6.981818-16.290909-53.527273-41.890909-104.727273-72.145455-155.927272-30.254545-48.872727-79.127273-72.145455-151.272727-69.818182z" fill="#1D91FC" p-id="3122"></path>
    <path d="M512.605091 855.947636c-10.635636 4.724364-19.618909-4.002909-16.058182-13.218909 26.158545-72.797091 44.078545-124.090182 50.920727-160.256 1.629091-13.474909 0.232727-28.113455-9.006545-54.574545l-2.839273-6.376727c-18.245818-58.112-18.269091-81.035636 22.132364-99.025455 80.802909-35.956364 182.225455 48.802909 148.712727 145.221818-23.808 66.653091-90.158545 129.326545-193.861818 188.229818z m172.381091-196.468363c27.345455-75.869091-53.992727-144.128-115.642182-116.666182-23.389091 10.402909-25.018182 23.877818-9.402182 70.423273l2.839273 6.376727c10.193455 28.578909 13.498182 47.476364 8.541091 64.977454-6.586182 30.952727-20.014545 75.170909-40.308364 132.584728 82.432-49.431273 132.724364-102.4 153.972364-157.696z" fill="#1D91FC" p-id="3123"></path>
    <path d="M607.906909 612.258909c-0.698182-7.330909 2.606545-11.333818 8.983273-14.196364 7.307636-0.698182 11.333818 2.606545 14.196363 8.983273 9.006545 54.574545-0.418909 102.074182-30.417454 143.453091-28.788364 38.306909-61.626182 73.309091-93.253818 105.192727-5.445818 4.980364-11.589818 2.629818-15.592728-0.698181-4.980364-5.422545-2.606545-11.566545 0.698182-15.592728a742.4 742.4 0 0 0 92.090182-102.120727c22.411636-35.467636 31.604364-77.777455 23.296-125.021091z" fill="#1D91FC" p-id="3124"></path>
</svg>